HIERARCHY
ROOT Hips
{
	OFFSET 0.000000 83.208069 2.550922
	CHANNELS 6 Xposition Yposition Zposition Xrotation Yrotation Zrotation
	JOINT Pelvis
	{
		OFFSET 0.000000 0.000000 0.000000
		CHANNELS 3 Xrotation Yrotation Zrotation
		JOINT LeftUpLeg
		{
			OFFSET 8.479694 -4.795517 -0.379053
			CHANNELS 3 Xrotation Yrotation Zrotation
			JOINT LeftLeg
			{
				OFFSET 0.485052 -32.551468 0.112863
				CHANNELS 3 Xrotation Yrotation Zrotation
				JOINT LeftFoot
				{
					OFFSET 0.438033 -32.635670 -3.012641
					CHANNELS 3 Xrotation Yrotation Zrotation
					JOINT LeftToeBase
					{
						OFFSET 0.970169 -13.225353 11.864223
						CHANNELS 3 Xrotation Yrotation Zrotation
						End Site
						{
							OFFSET 0.000000 12.319231 0.000000
						}
					}
					JOINT LFootTongue
					{
						OFFSET 1.142399 -1.059789 6.665162
						CHANNELS 3 Xrotation Yrotation Zrotation
						End Site
						{
							OFFSET 0.000000 12.319230 0.000000
						}
					}
				}
				JOINT LeftPantLeg
				{
					OFFSET 1.152549 -16.519323 -2.284731
					CHANNELS 3 Xrotation Yrotation Zrotation
					End Site
					{
						OFFSET 0.000000 24.746851 0.000000
					}
				}
			}
		}
		JOINT RightUpLeg
		{
			OFFSET -8.479694 -4.795517 -0.379053
			CHANNELS 3 Xrotation Yrotation Zrotation
			JOINT RightLeg
			{
				OFFSET -0.484100 -32.551483 0.112903
				CHANNELS 3 Xrotation Yrotation Zrotation
				JOINT RightFoot
				{
					OFFSET -0.438985 -32.635651 -3.012681
					CHANNELS 3 Xrotation Yrotation Zrotation
					JOINT RightToeBase
					{
						OFFSET -0.970169 -13.225354 11.864223
						CHANNELS 3 Xrotation Yrotation Zrotation
						End Site
						{
							OFFSET 0.000000 12.319217 0.000000
						}
					}
					JOINT RFootTongue
					{
						OFFSET -1.142220 -1.059793 6.665161
						CHANNELS 3 Xrotation Yrotation Zrotation
						End Site
						{
							OFFSET 0.000000 12.319217 0.000000
						}
					}
				}
				JOINT RightPantLeg
				{
					OFFSET -1.153501 -16.519308 -2.284772
					CHANNELS 3 Xrotation Yrotation Zrotation
					End Site
					{
						OFFSET 0.000000 24.746878 0.000000
					}
				}
			}
		}
	}
	JOINT Spine
	{
		OFFSET 0.000000 7.722015 1.166203
		CHANNELS 3 Xrotation Yrotation Zrotation
		JOINT Spine1
		{
			OFFSET 0.000000 12.024086 0.248766
			CHANNELS 3 Xrotation Yrotation Zrotation
			JOINT Spine2
			{
				OFFSET -0.000000 11.503036 -0.491240
				CHANNELS 3 Xrotation Yrotation Zrotation
				JOINT Neck
				{
					OFFSET 0.000000 18.430687 -3.123054
					CHANNELS 3 Xrotation Yrotation Zrotation
					JOINT Head
					{
						OFFSET -0.000000 9.051071 1.034021
						CHANNELS 3 Xrotation Yrotation Zrotation
						JOINT HairB
						{
							OFFSET 0.208397 24.786072 24.822304
							CHANNELS 3 Xrotation Yrotation Zrotation
							End Site
							{
								OFFSET 0.000000 32.263794 0.000000
							}
						}
						JOINT HairA
						{
							OFFSET -7.081073 24.428299 23.196634
							CHANNELS 3 Xrotation Yrotation Zrotation
							End Site
							{
								OFFSET 0.000000 32.263779 0.000000
							}
						}
						JOINT Hat
						{
							OFFSET 16.728800 15.048309 -15.439650
							CHANNELS 3 Xrotation Yrotation Zrotation
							End Site
							{
								OFFSET 0.000000 32.263794 0.000000
							}
						}
					}
				}
				JOINT LeftShoulder
				{
					OFFSET 6.197824 13.665230 -4.064723
					CHANNELS 3 Xrotation Yrotation Zrotation
					JOINT LeftArm
					{
						OFFSET 7.778132 -0.187073 -1.709282
						CHANNELS 3 Xrotation Yrotation Zrotation
						JOINT LeftForeArm
						{
							OFFSET 21.954697 0.000000 -2.041093
							CHANNELS 3 Xrotation Yrotation Zrotation
							JOINT LeftHand
							{
								OFFSET 22.992908 0.000000 -0.870901
								CHANNELS 3 Xrotation Yrotation Zrotation
								JOINT LeftHandThumb1
								{
									OFFSET 3.593975 -1.460358 3.365570
									CHANNELS 3 Xrotation Yrotation Zrotation
									JOINT LeftHandThumb2
									{
										OFFSET 3.016712 -1.561966 2.119022
										CHANNELS 3 Xrotation Yrotation Zrotation
										JOINT LeftHandThumb3
										{
											OFFSET 3.029564 -2.099800 1.415844
											CHANNELS 3 Xrotation Yrotation Zrotation
											End Site
											{
												OFFSET 0.000000 3.948677 0.000000
											}
										}
									}
								}
								JOINT LeftHandIndex1
								{
									OFFSET 11.372505 0.065018 3.699154
									CHANNELS 3 Xrotation Yrotation Zrotation
									JOINT LeftHandIndex2
									{
										OFFSET 3.229195 -0.574921 -0.143498
										CHANNELS 3 Xrotation Yrotation Zrotation
										JOINT LeftHandIndex3
										{
											OFFSET 3.111160 -1.135635 -0.280794
											CHANNELS 3 Xrotation Yrotation Zrotation
											End Site
											{
												OFFSET 0.000000 3.323822 0.000000
											}
										}
									}
								}
								JOINT LeftHandMiddle1
								{
									OFFSET 11.327377 0.426697 -0.098180
									CHANNELS 3 Xrotation Yrotation Zrotation
									JOINT LeftHandMiddle2
									{
										OFFSET 3.290932 -0.875465 -0.186927
										CHANNELS 3 Xrotation Yrotation Zrotation
										JOINT LeftHandMiddle3
										{
											OFFSET 3.094551 -1.150223 -0.267588
											CHANNELS 3 Xrotation Yrotation Zrotation
											End Site
											{
												OFFSET 0.000000 3.312233 0.000000
											}
										}
									}
								}
								JOINT LeftHandRing1
								{
									OFFSET 11.497078 -0.008904 -3.070051
									CHANNELS 3 Xrotation Yrotation Zrotation
									JOINT LeftHandRing2
									{
										OFFSET 2.881340 -0.992859 -0.186928
										CHANNELS 3 Xrotation Yrotation Zrotation
										JOINT LeftHandRing3
										{
											OFFSET 3.022743 -1.281013 -0.290960
											CHANNELS 3 Xrotation Yrotation Zrotation
											End Site
											{
												OFFSET 0.000000 3.295853 0.000000
											}
										}
									}
								}
								JOINT LeftHandPinky1
								{
									OFFSET 10.529488 -1.373093 -5.625615
									CHANNELS 3 Xrotation Yrotation Zrotation
									JOINT LeftHandPinky2
									{
										OFFSET 2.679024 -0.950073 -0.330554
										CHANNELS 3 Xrotation Yrotation Zrotation
										JOINT LeftHandPinky3
										{
											OFFSET 2.724571 -0.843613 -0.252685
											CHANNELS 3 Xrotation Yrotation Zrotation
											End Site
											{
												OFFSET 0.000000 2.863358 0.000000
											}
										}
									}
								}
							}
							JOINT LSleeve
							{
								OFFSET 6.633202 -0.344879 -1.263650
								CHANNELS 3 Xrotation Yrotation Zrotation
								End Site
								{
									OFFSET 0.000000 14.885345 0.000000
								}
							}
						}
					}
				}
				JOINT RightShoulder
				{
					OFFSET -6.197824 13.665230 -4.064723
					CHANNELS 3 Xrotation Yrotation Zrotation
					JOINT RightArm
					{
						OFFSET -7.778132 -0.187073 -1.709282
						CHANNELS 3 Xrotation Yrotation Zrotation
						JOINT RightForeArm
						{
							OFFSET -21.954697 0.000000 -2.041093
							CHANNELS 3 Xrotation Yrotation Zrotation
							JOINT RightHand
							{
								OFFSET -22.992908 0.000000 -0.870901
								CHANNELS 3 Xrotation Yrotation Zrotation
								JOINT RightHandThumb1
								{
									OFFSET -3.593975 -1.460358 3.365570
									CHANNELS 3 Xrotation Yrotation Zrotation
									JOINT RightHandThumb2
									{
										OFFSET -3.016712 -1.561966 2.119022
										CHANNELS 3 Xrotation Yrotation Zrotation
										JOINT RightHandThumb3
										{
											OFFSET -3.029564 -2.099800 1.415844
											CHANNELS 3 Xrotation Yrotation Zrotation
											End Site
											{
												OFFSET 0.000000 3.948677 0.000000
											}
										}
									}
								}
								JOINT RightHandIndex1
								{
									OFFSET -11.372513 0.065018 3.699154
									CHANNELS 3 Xrotation Yrotation Zrotation
									JOINT RightHandIndex2
									{
										OFFSET -3.229187 -0.574921 -0.143498
										CHANNELS 3 Xrotation Yrotation Zrotation
										JOINT RightHandIndex3
										{
											OFFSET -3.111160 -1.135635 -0.280794
											CHANNELS 3 Xrotation Yrotation Zrotation
											End Site
											{
												OFFSET 0.000000 3.323822 0.000000
											}
										}
									}
								}
								JOINT RightHandMiddle1
								{
									OFFSET -11.327377 0.426697 -0.098180
									CHANNELS 3 Xrotation Yrotation Zrotation
									JOINT RightHandMiddle2
									{
										OFFSET -3.290932 -0.875465 -0.186927
										CHANNELS 3 Xrotation Yrotation Zrotation
										JOINT RightHandMiddle3
										{
											OFFSET -3.094551 -1.150223 -0.267588
											CHANNELS 3 Xrotation Yrotation Zrotation
											End Site
											{
												OFFSET 0.000000 3.312233 0.000000
											}
										}
									}
								}
								JOINT RightHandRing1
								{
									OFFSET -11.497078 -0.008904 -3.070051
									CHANNELS 3 Xrotation Yrotation Zrotation
									JOINT RightHandRing2
									{
										OFFSET -2.881340 -0.992859 -0.186928
										CHANNELS 3 Xrotation Yrotation Zrotation
										JOINT RightHandRing3
										{
											OFFSET -3.022743 -1.281013 -0.290960
											CHANNELS 3 Xrotation Yrotation Zrotation
											End Site
											{
												OFFSET 0.000000 3.295853 0.000000
											}
										}
									}
								}
								JOINT RightHandPinky1
								{
									OFFSET -10.529488 -1.373093 -5.625615
									CHANNELS 3 Xrotation Yrotation Zrotation
									JOINT RightHandPinky2
									{
										OFFSET -2.679024 -0.950073 -0.330554
										CHANNELS 3 Xrotation Yrotation Zrotation
										JOINT RightHandPinky3
										{
											OFFSET -2.724571 -0.843613 -0.252685
											CHANNELS 3 Xrotation Yrotation Zrotation
											End Site
											{
												OFFSET 0.000000 2.863358 0.000000
											}
										}
									}
								}
							}
							JOINT RSleeve
							{
								OFFSET -6.633202 -0.344879 -1.263650
								CHANNELS 3 Xrotation Yrotation Zrotation
								End Site
								{
									OFFSET 0.000000 14.885345 0.000000
								}
							}
						}
					}
				}
				JOINT Backpack
				{
					OFFSET -0.000000 -2.471489 36.677479
					CHANNELS 3 Xrotation Yrotation Zrotation
					End Site
					{
						OFFSET 0.000000 20.427322 0.000000
					}
				}
				JOINT Hood
				{
					OFFSET -0.000000 18.754143 -10.430963
					CHANNELS 3 Xrotation Yrotation Zrotation
					JOINT Hood1
					{
						OFFSET -0.000000 -5.011017 -7.685929
						CHANNELS 3 Xrotation Yrotation Zrotation
						End Site
						{
							OFFSET 0.000000 9.175171 0.000000
						}
					}
				}
				JOINT LHoodieString
				{
					OFFSET 5.250455 16.397728 3.089918
					CHANNELS 3 Xrotation Yrotation Zrotation
					JOINT LHoodieString1
					{
						OFFSET 0.257711 -6.364296 3.694587
						CHANNELS 3 Xrotation Yrotation Zrotation
						JOINT LHoodieString2
						{
							OFFSET 0.000000 -9.643806 2.679132
							CHANNELS 3 Xrotation Yrotation Zrotation
							End Site
							{
								OFFSET 0.000000 10.009033 0.000000
							}
						}
					}
				}
				JOINT RHoodieString
				{
					OFFSET -5.250455 16.397728 3.089918
					CHANNELS 3 Xrotation Yrotation Zrotation
					JOINT RHoodieString1
					{
						OFFSET -0.257711 -6.364296 3.694587
						CHANNELS 3 Xrotation Yrotation Zrotation
						JOINT RHoodieString2
						{
							OFFSET 0.000000 -9.643806 2.679132
							CHANNELS 3 Xrotation Yrotation Zrotation
							End Site
							{
								OFFSET 0.000000 10.009033 0.000000
							}
						}
					}
				}
			}
			JOINT LBackpack_Strap
			{
				OFFSET 15.223173 -7.719788 -6.610897
				CHANNELS 3 Xrotation Yrotation Zrotation
				End Site
				{
					OFFSET 0.000000 16.040596 0.000000
				}
			}
			JOINT RBackpack_Strap
			{
				OFFSET -15.223000 -7.719788 -6.610897
				CHANNELS 3 Xrotation Yrotation Zrotation
				End Site
				{
					OFFSET 0.000000 16.040596 0.000000
				}
			}
		}
	}
	JOINT BoyFacialAnim_Joint
	{
		OFFSET 1.000000 -82.208069 -1.550922
		CHANNELS 3 Xrotation Yrotation Zrotation
		End Site
		{
			OFFSET 0.000000 30.012787 0.000000
		}
	}
}
MOTION
Frames: 5
Frame Time: 0.016667
-0.156693 81.485352 0.626467 -3.655577 -0.266878 -3.066615 -0.000000 -0.000000 0.000000 -9.194471 13.825648 7.921190 23.461720 10.334953 2.459375 -10.872804 3.815797 -6.239624 -0.000000 0.000000 0.000000 0.000000 0.000000 -0.000000 -0.000000 -0.000000 0.000000 -10.292284 -4.358832 -0.370825 14.580661 -10.389692 -3.537480 1.373253 -13.083638 6.081106 -0.000000 0.000000 0.000000 -0.000000 0.000000 0.000000 0.000000 -0.000002 0.000000 4.753445 1.355097 0.241514 2.572230 0.188490 0.804270 2.570293 0.195339 0.808666 -1.342908 -0.050186 -0.205819 -4.952819 -0.368062 -0.267113 0.000000 -0.000000 0.000000 0.000000 -0.000000 0.000000 0.000000 -0.000000 0.000000 0.348351 0.827242 -4.748616 -10.481458 -28.068285 -78.394002 0.000000 -3.107968 0.000015 15.256477 -2.285369 -7.772228 1.823884 19.235507 9.752095 -4.055798 2.095426 7.198228 0.000001 -0.000001 -0.000001 -0.344940 -1.707931 -12.229074 -1.675824 -2.580731 -10.519504 -0.000003 -0.000001 -0.000000 -0.449920 -2.171559 -9.532918 -2.805242 -1.305911 -25.963026 0.000001 -0.000001 -0.000004 -0.464234 -2.347810 -8.120066 -4.341254 -0.352523 -41.108084 0.000001 -0.000001 -0.000002 0.542548 -1.631684 -9.957341 -5.960044 -0.365083 -58.113579 -0.000000 0.000001 -0.000000 0.000001 0.000000 -0.000000 0.341724 -1.804781 5.898528 -12.332648 9.846897 76.705681 -0.000002 5.173987 0.000000 36.539692 4.818306 3.922231 0.480419 -21.539015 -11.065133 -5.633173 0.293138 -8.055939 0.000003 0.000000 -0.000000 0.974048 -1.392533 16.752388 -1.098009 2.586761 4.383685 -0.000002 0.000000 0.000000 1.556623 -1.731620 15.208080 -2.116235 1.482536 18.105218 -0.000002 -0.000001 0.000000 2.526937 -2.464707 15.226022 -3.508727 0.864810 31.127044 -0.000002 0.000001 0.000003 2.025646 -0.439536 18.083329 -3.745061 -2.733856 46.234770 -0.000000 -0.000003 0.000003 0.000000 0.000000 -0.000000 0.000000 0.000000 0.000000 0.000000 0.000000 0.000000 0.000000 0.000000 0.000000 0.000000 0.000000 0.000000 0.000000 0.000000 0.000000 0.000000 -0.000000 0.000000 0.000000 0.000000 0.000000 0.000000 0.000000 0.000000 0.000000 0.000000 0.000000 -0.000000 0.000000 -0.000000 -0.000000 0.000000 -0.000000 -0.000000 -0.000000 0.000000 
-0.153528 81.484306 0.607994 -3.642397 -0.306482 -3.079069 0.000000 0.000000 0.000000 -9.237906 13.852342 7.959703 23.493609 10.330104 2.421039 -10.879817 3.810717 -6.216871 0.000000 -0.000000 0.000000 0.000000 -0.000000 -0.000000 0.000001 -0.000001 0.000000 -10.320972 -4.359178 -0.370272 14.564748 -10.391369 -3.515325 1.397672 -13.044980 6.059737 0.000000 -0.000002 -0.000000 0.000000 -0.000002 -0.000000 0.000000 0.000000 0.000000 4.722891 1.373901 0.251195 2.581958 0.191239 0.804231 2.580008 0.197996 0.808711 -1.369562 -0.055531 -0.193555 -4.967042 -0.376295 -0.278138 -0.000000 0.000000 -0.000000 -0.000000 0.000000 -0.000000 -0.000000 0.000000 -0.000000 0.347454 0.837247 -4.741814 -10.376366 -27.920053 -78.368313 0.000007 -2.989142 0.000018 15.438946 -2.264095 -7.850934 1.820002 19.275134 9.767975 -4.055803 2.095426 7.198228 0.000004 0.000001 0.000001 -0.339621 -1.692595 -12.174585 -1.675817 -2.580708 -10.519495 0.000000 -0.000000 -0.000000 -0.426628 -2.120836 -9.436527 -2.803299 -1.306633 -25.940015 0.000001 0.000001 -0.000001 -0.414511 -2.254660 -7.971225 -4.337358 -0.355669 -41.056854 -0.000000 0.000000 -0.000002 0.614031 -1.502869 -9.768618 -5.955348 -0.370566 -58.040345 -0.000000 0.000001 0.000001 0.000003 -0.000000 0.000000 0.343149 -1.818727 5.908470 -12.286501 9.779125 76.704623 -0.000000 5.140611 0.000009 36.551248 4.768768 3.909862 0.496644 -21.525667 -11.037404 -5.633174 0.293135 -8.055978 -0.000002 -0.000001 0.000001 0.958025 -1.358185 16.788815 -1.098013 2.586776 4.383623 0.000001 -0.000000 -0.000001 1.544772 -1.707897 15.230442 -2.116221 1.482549 18.105109 -0.000002 0.000000 -0.000001 2.520765 -2.454231 15.231144 -3.508696 0.864811 31.126787 -0.000001 0.000000 0.000002 2.024709 -0.439635 18.074905 -3.745061 -2.733855 46.234753 0.000000 -0.000003 0.000001 -0.000000 0.000001 -0.000000 -0.000000 0.000000 -0.000000 -0.000000 0.000000 -0.000000 -0.000000 0.000000 -0.000000 -0.000000 0.000000 -0.000000 -0.000000 0.000000 -0.000000 -0.000000 -0.000000 -0.000000 -0.000000 0.000000 -0.000000 -0.000000 0.000000 -0.000000 -0.000000 0.000000 -0.000000 0.000000 0.000000 -0.000000 0.000000 0.000000 -0.000000 0.000000 0.000000 0.000000 
-0.151153 81.482750 0.589868 -3.636619 -0.351930 -3.092668 0.000000 0.000000 -0.000000 -9.273548 13.877705 7.997136 23.527669 10.325243 2.387473 -10.888710 3.813036 -6.197907 -0.000000 -0.000000 0.000000 -0.000000 -0.000000 -0.000000 -0.000001 -0.000004 0.000000 -10.344557 -4.356937 -0.366190 14.552632 -10.392251 -3.496137 1.419963 -13.002461 6.039345 -0.000000 0.000000 0.000000 -0.000000 0.000000 0.000000 0.000000 0.000001 0.000000 4.706852 1.398499 0.260851 2.590687 0.194722 0.803345 2.588718 0.201398 0.807921 -1.393973 -0.062377 -0.180074 -4.978303 -0.387753 -0.294712 0.000000 0.000000 0.000000 0.000000 0.000000 0.000000 0.000000 0.000000 0.000000 0.346957 0.834368 -4.735712 -10.292789 -27.761767 -78.344285 -0.000005 -2.869968 0.000003 15.576103 -2.250493 -7.926948 1.815247 19.316216 9.785608 -4.055799 2.095425 7.198226 -0.000001 -0.000000 -0.000001 -0.333063 -1.673826 -12.118641 -1.675821 -2.580736 -10.519490 0.000002 -0.000000 -0.000001 -0.399313 -2.060875 -9.322255 -2.800390 -1.307744 -25.905349 -0.000003 -0.000002 -0.000002 -0.356940 -2.145041 -7.784117 -4.331456 -0.360441 -40.979277 0.000001 0.000000 -0.000001 0.695916 -1.350880 -9.525687 -5.948199 -0.378848 -57.929136 -0.000000 0.000001 -0.000000 -0.000000 0.000000 -0.000000 0.344004 -1.820554 5.917509 -12.239015 9.728739 76.702410 -0.000011 5.125810 0.000043 36.550927 4.741716 3.900459 0.509959 -21.512038 -11.013931 -5.633164 0.293148 -8.055944 0.000000 0.000002 0.000001 0.937878 -1.313351 16.855790 -1.097987 2.586760 4.383571 -0.000000 0.000001 0.000001 1.529264 -1.676380 15.271876 -2.116221 1.482569 18.104958 -0.000002 0.000000 -0.000002 2.511904 -2.439383 15.241005 -3.508679 0.864820 31.126593 -0.000004 -0.000001 -0.000002 2.022304 -0.438018 18.059932 -3.745070 -2.733855 46.234777 -0.000001 -0.000001 0.000003 0.000000 0.000000 0.000001 0.000000 0.000000 0.000000 0.000000 0.000000 0.000000 0.000000 0.000000 0.000000 0.000000 0.000000 0.000000 0.000000 0.000000 0.000000 0.000000 0.000000 0.000000 0.000000 0.000000 0.000000 0.000000 0.000000 0.000000 0.000000 0.000000 0.000000 -0.000000 0.000000 -0.000000 -0.000000 0.000000 -0.000000 0.000000 0.000000 -0.000000 
-0.148927 81.480591 0.572243 -3.638090 -0.397896 -3.105354 -0.000000 0.000000 0.000000 -9.300524 13.898295 8.028362 23.562054 10.320846 2.361634 -10.898227 3.822748 -6.183094 -0.000000 -0.000000 -0.000000 0.000000 -0.000000 -0.000000 -0.000000 0.000001 -0.000001 -10.363670 -4.353031 -0.360973 14.546952 -10.392413 -3.481273 1.438910 -12.960315 6.022194 0.000000 0.000000 -0.000000 0.000000 0.000000 -0.000000 -0.000000 0.000001 -0.000000 4.705767 1.425238 0.270495 2.598472 0.198443 0.801674 2.596480 0.205050 0.806349 -1.416041 -0.070100 -0.166236 -4.986066 -0.401495 -0.314482 -0.000000 -0.000000 -0.000000 -0.000000 -0.000000 -0.000000 -0.000000 -0.000000 -0.000000 0.346655 0.819095 -4.726601 -10.226344 -27.597099 -78.325071 0.000010 -2.755620 0.000010 15.661972 -2.240171 -7.998559 1.809802 19.353780 9.803321 -4.055796 2.095426 7.198228 0.000002 -0.000001 -0.000000 -0.326248 -1.654463 -12.063759 -1.675819 -2.580728 -10.519476 -0.000002 0.000001 0.000001 -0.370661 -1.997464 -9.194928 -2.796572 -1.309145 -25.860105 0.000001 0.000000 -0.000001 -0.296741 -2.028233 -7.566306 -4.323695 -0.366647 -40.877886 -0.000001 -0.000002 -0.000003 0.780691 -1.187724 -9.238142 -5.938812 -0.389695 -57.783489 -0.000002 0.000001 0.000001 -0.000003 0.000000 -0.000000 0.344246 -1.806890 5.926633 -12.189364 9.688441 76.696508 -0.000002 5.124854 0.000015 36.544408 4.732502 3.890199 0.520477 -21.499709 -10.995012 -5.633168 0.293138 -8.055967 -0.000002 0.000002 -0.000001 0.914257 -1.259566 16.949632 -1.097998 2.586762 4.383512 -0.000002 0.000000 0.000001 1.511027 -1.638811 15.331155 -2.116200 1.482555 18.104823 -0.000003 -0.000001 0.000001 2.501770 -2.421997 15.257632 -3.508655 0.864814 31.126302 0.000001 -0.000000 0.000001 2.020115 -0.436618 18.042851 -3.745067 -2.733845 46.234753 -0.000002 -0.000002 -0.000003 -0.000001 0.000001 0.000001 0.000001 -0.000000 -0.000000 0.000001 -0.000000 -0.000000 0.000001 -0.000000 -0.000000 0.000001 -0.000000 -0.000000 0.000001 -0.000000 -0.000000 0.000001 -0.000000 0.000000 0.000001 -0.000000 -0.000000 0.000001 -0.000000 -0.000000 0.000001 -0.000000 0.000000 0.000000 0.000000 0.000000 0.000000 0.000000 0.000000 -0.000000 0.000000 0.000000 
-0.146287 81.477707 0.555031 -3.645366 -0.438718 -3.115739 0.000000 -0.000000 0.000000 -9.321475 13.910841 8.049978 23.598119 10.317245 2.345768 -10.908444 3.838953 -6.172663 0.000000 -0.000000 -0.000000 -0.000000 -0.000000 0.000000 -0.000000 0.000001 -0.000000 -10.380370 -4.348096 -0.356388 14.550603 -10.391533 -3.471658 1.453258 -12.923676 6.010285 -0.000000 0.000002 0.000000 -0.000000 0.000002 0.000000 -0.000000 0.000000 0.000000 4.722133 1.451265 0.280068 2.602940 0.201984 0.799151 2.600929 0.208538 0.803911 -1.436843 -0.078721 -0.153646 -4.988695 -0.420764 -0.335527 0.000000 -0.000000 0.000000 0.000000 -0.000000 0.000000 0.000000 -0.000000 0.000000 0.346468 0.793469 -4.712152 -10.187871 -27.454707 -78.311664 0.000001 -2.672577 0.000008 15.678800 -2.247801 -8.053211 1.803890 19.380889 9.818815 -4.055805 2.095426 7.198227 0.000004 -0.000001 0.000001 -0.322986 -1.643770 -12.013450 -1.675813 -2.580721 -10.519492 0.000000 0.000000 0.000001 -0.347949 -1.947401 -9.056208 -2.792101 -1.310801 -25.807195 0.000001 -0.000002 -0.000001 -0.246766 -1.929926 -7.317286 -4.314628 -0.373915 -40.758969 0.000001 0.000000 -0.000000 0.850072 -1.045731 -8.903121 -5.927759 -0.402398 -57.612468 -0.000001 -0.000001 0.000001 -0.000001 0.000000 -0.000000 0.343395 -1.772820 5.932403 -12.139595 9.676212 76.690040 0.000003 5.158297 -0.000018 36.510838 4.756273 3.881138 0.526495 -21.493082 -10.984332 -5.633176 0.293133 -8.055958 0.000005 0.000002 0.000004 0.895633 -1.215236 17.045920 -1.097991 2.586763 4.383485 -0.000001 0.000000 -0.000000 1.496518 -1.607935 15.392164 -2.116200 1.482558 18.104808 -0.000001 -0.000000 -0.000002 2.493702 -2.407895 15.275028 -3.508640 0.864839 31.126169 -0.000003 -0.000001 -0.000000 2.018600 -0.435743 18.025662 -3.745062 -2.733846 46.234756 -0.000001 0.000001 0.000002 0.000001 0.000000 0.000001 0.000000 -0.000000 0.000000 0.000000 -0.000000 0.000000 0.000000 -0.000000 0.000000 0.000000 -0.000000 0.000000 0.000000 -0.000000 0.000000 0.000000 -0.000000 0.000000 0.000000 -0.000000 0.000000 0.000000 -0.000000 0.000000 0.000000 0.000000 0.000000 0.000000 0.000000 -0.000000 0.000000 0.000000 -0.000000 0.000000 -0.000000 0.000000 
